<mxfile host="app.diagrams.net" modified="2022-04-18T00:58:39.097Z" agent="5.0 (Windows NT 10.0; Win64; x64) AppleWebKit/537.36 (KHTML, like Gecko) Chrome/100.0.4896.88 Safari/537.36" etag="ZKRIs2AWWA48SvhBZ_gp" version="15.2.9" type="github">
  <diagram id="vtiS4iB4r9I7gZEjqPuy" name="Page-1">
    <mxGraphModel dx="559" dy="334" grid="1" gridSize="10" guides="1" tooltips="1" connect="1" arrows="1" fold="1" page="1" pageScale="1" pageWidth="1169" pageHeight="827" math="0" shadow="0">
      <root>
        <mxCell id="0" />
        <mxCell id="1" parent="0" />
        <mxCell id="zP-ypR6m_P0r2DCE7wxh-5" style="edgeStyle=orthogonalEdgeStyle;rounded=0;orthogonalLoop=1;jettySize=auto;html=1;exitX=1;exitY=0.5;exitDx=0;exitDy=0;entryX=0;entryY=0.5;entryDx=0;entryDy=0;fontSize=17;strokeWidth=2;" edge="1" parent="1" source="zP-ypR6m_P0r2DCE7wxh-1" target="zP-ypR6m_P0r2DCE7wxh-3">
          <mxGeometry relative="1" as="geometry" />
        </mxCell>
        <mxCell id="zP-ypR6m_P0r2DCE7wxh-6" value="" style="edgeStyle=orthogonalEdgeStyle;rounded=0;orthogonalLoop=1;jettySize=auto;html=1;fontSize=17;strokeWidth=2;" edge="1" parent="1" source="zP-ypR6m_P0r2DCE7wxh-1" target="zP-ypR6m_P0r2DCE7wxh-4">
          <mxGeometry relative="1" as="geometry" />
        </mxCell>
        <mxCell id="zP-ypR6m_P0r2DCE7wxh-1" value="Microcontroller&lt;br&gt;(Arduino Nano/ESP32)" style="rounded=0;whiteSpace=wrap;html=1;fontSize=17;fontStyle=1;strokeWidth=2;" vertex="1" parent="1">
          <mxGeometry x="50" y="120" width="140" height="200" as="geometry" />
        </mxCell>
        <mxCell id="zP-ypR6m_P0r2DCE7wxh-3" value="&lt;b&gt;Sensor&lt;br&gt;Winsen ZE03&lt;/b&gt;" style="rounded=0;whiteSpace=wrap;html=1;fontSize=17;strokeWidth=2;" vertex="1" parent="1">
          <mxGeometry x="230" y="190" width="120" height="60" as="geometry" />
        </mxCell>
        <mxCell id="zP-ypR6m_P0r2DCE7wxh-4" value="&lt;b&gt;Display LCD 16X2 / 32X4&lt;/b&gt;" style="rounded=0;whiteSpace=wrap;html=1;fontSize=17;strokeWidth=2;" vertex="1" parent="1">
          <mxGeometry x="60" y="30" width="120" height="60" as="geometry" />
        </mxCell>
        <mxCell id="zP-ypR6m_P0r2DCE7wxh-8" style="edgeStyle=orthogonalEdgeStyle;rounded=0;orthogonalLoop=1;jettySize=auto;html=1;exitX=0.5;exitY=1;exitDx=0;exitDy=0;entryX=0.5;entryY=0;entryDx=0;entryDy=0;fontSize=17;strokeWidth=2;" edge="1" parent="1" source="zP-ypR6m_P0r2DCE7wxh-7" target="zP-ypR6m_P0r2DCE7wxh-3">
          <mxGeometry relative="1" as="geometry" />
        </mxCell>
        <mxCell id="zP-ypR6m_P0r2DCE7wxh-7" value="&lt;b&gt;Power Supply&lt;br&gt;0-3.0 V&lt;br&gt;&lt;/b&gt;" style="rounded=0;whiteSpace=wrap;html=1;fontSize=17;strokeWidth=2;" vertex="1" parent="1">
          <mxGeometry x="230" y="70" width="120" height="60" as="geometry" />
        </mxCell>
      </root>
    </mxGraphModel>
  </diagram>
</mxfile>
